<svg xmlns="http://www.w3.org/2000/svg" viewBox="0 0 439.78 232.64"><defs><style>.cls-1{fill:#00b38d;}</style></defs><title>nova-therapy--green</title><g id="Layer_2" data-name="Layer 2"><g id="Layer_1-2" data-name="Layer 1"><path class="cls-1" d="M221.78,25a12.51,12.51,0,1,0-12.51-12.51A12.51,12.51,0,0,0,221.78,25"/><path class="cls-1" d="M277.65,50.25a12.51,12.51,0,1,0-12.51-12.51,12.51,12.51,0,0,0,12.51,12.51"/><path class="cls-1" d="M165.91,50.25a12.51,12.51,0,1,0-12.52-12.51,12.51,12.51,0,0,0,12.52,12.51"/><path class="cls-1" d="M165.75,94.13a31.38,31.38,0,1,1-31.37,31.38,31.42,31.42,0,0,1,31.37-31.38m0-18.72a50.1,50.1,0,1,0,50.1,50.1,50.1,50.1,0,0,0-50.1-50.1"/><path class="cls-1" d="M310.13,83.29l-32.64,70-32.63-70a10.12,10.12,0,0,0-9.17-5.84H221.48l44.81,96.11h22.4l44.82-96.11H319.3a10.12,10.12,0,0,0-9.17,5.84"/><path class="cls-1" d="M351.13,167.72l32.64-70,32.63,70a10.12,10.12,0,0,0,9.17,5.84h14.21L395,77.45h-22.4l-44.82,96.11H342a10.12,10.12,0,0,0,9.17-5.84"/><path class="cls-1" d="M3.77,106.24v67.32H22.54V123.37L7.59,110.1a44.87,44.87,0,0,1-3.82-3.86"/><path class="cls-1" d="M76.47,77.45v59.62L27.06,92.8a20.68,20.68,0,0,1-2.91-3.23A21.32,21.32,0,0,1,23,87.77a20.56,20.56,0,0,1-2.77-10.32H0A36.55,36.55,0,0,0,12.29,104.8L71.6,157.46a21.55,21.55,0,0,1,7.19,16.1H95.23V77.45H76.47Z"/><path class="cls-1" d="M29.94,214.82l-4.12,17.82H23l9.12-39.4h10q6.83,0,9.58,2.63c1.84,1.76,2.37,4.33,1.58,7.73a13,13,0,0,1-1.73,4.12,13.69,13.69,0,0,1-3,3.27,16.11,16.11,0,0,1-4.06,2.31,18.28,18.28,0,0,1-4.92,1.19,3.22,3.22,0,0,1,.94,1.11l9.61,17H47.67a1.24,1.24,0,0,1-1.22-.73l-8.91-16a2.07,2.07,0,0,0-.82-.86,3.78,3.78,0,0,0-1.63-.25Zm.49-2.12h6.85a17.72,17.72,0,0,0,4.84-.62,13.3,13.3,0,0,0,3.92-1.8,10.62,10.62,0,0,0,4.45-6.51c.64-2.81.21-4.89-1.32-6.24s-4-2-7.54-2H34.41Z"/><polygon class="cls-1" points="123.42 193.24 122.87 195.61 102.13 195.61 98.44 211.53 115.7 211.53 115.17 213.85 97.91 213.85 94.1 230.27 114.84 230.27 114.3 232.64 90.69 232.64 99.81 193.24 123.42 193.24"/><path class="cls-1" d="M178.93,222.84c.18-.3.36-.59.55-.88a10.08,10.08,0,0,1,.59-.82l21.82-27.37a1.33,1.33,0,0,1,.55-.44,1.83,1.83,0,0,1,.63-.09h2l-9.12,39.4h-2.51l7.77-33.58c.11-.48.26-1,.44-1.53l-21.88,27.54a1.6,1.6,0,0,1-1.28.72H178a.93.93,0,0,1-.94-.72l-9.55-27.57a14.89,14.89,0,0,1-.28,1.56l-7.77,33.58H157l9.12-39.4h1.95a1.67,1.67,0,0,1,.61.09.72.72,0,0,1,.36.44l9.55,27.4a9.49,9.49,0,0,1,.34,1.67"/><polygon class="cls-1" points="273.76 193.24 273.21 195.61 252.47 195.61 248.78 211.53 266.04 211.53 265.51 213.85 248.25 213.85 244.44 230.27 265.19 230.27 264.64 232.64 241.03 232.64 250.15 193.24 273.76 193.24"/><path class="cls-1" d="M345.07,212.93a28.1,28.1,0,0,1-3.27,8.21,24.55,24.55,0,0,1-5.28,6.21,22.41,22.41,0,0,1-6.84,3.93,23.45,23.45,0,0,1-8,1.36H307.34l9.12-39.4h14.37a18.28,18.28,0,0,1,7.34,1.37,12.07,12.07,0,0,1,5,3.92,13.53,13.53,0,0,1,2.41,6.21,22.36,22.36,0,0,1-.53,8.19m-2.95,0a21.58,21.58,0,0,0,.56-7.35,11.9,11.9,0,0,0-1.95-5.46,9.94,9.94,0,0,0-4.22-3.4,15.29,15.29,0,0,0-6.21-1.17H318.8l-8.05,34.78h11.5a19.47,19.47,0,0,0,6.75-1.17,18.6,18.6,0,0,0,5.79-3.4,21.26,21.26,0,0,0,4.48-5.46,26.19,26.19,0,0,0,2.85-7.37"/><path class="cls-1" d="M396.89,216.38l-3.77,16.26h-2.86L394,216.38l-9.2-23.14h2.47a.85.85,0,0,1,.59.18,1.62,1.62,0,0,1,.34.52L395.3,212a9.27,9.27,0,0,1,.39,1.24c.09.39.16.8.22,1.21.24-.41.5-.81.78-1.21s.6-.82.95-1.24l15.44-18.1a2.49,2.49,0,0,1,.53-.5,1.24,1.24,0,0,1,.69-.2h2.51Z"/></g></g></svg>